<?xml version="1.0" encoding="UTF-8"?>
<!--Generator: Apple Native CoreSVG 232.5-->
<!DOCTYPE svg
PUBLIC "-//W3C//DTD SVG 1.1//EN"
       "http://www.w3.org/Graphics/SVG/1.1/DTD/svg11.dtd">
<svg version="1.1" xmlns="http://www.w3.org/2000/svg" xmlns:xlink="http://www.w3.org/1999/xlink" width="3300" height="2200">
 <!--glyph: "uni100AEC.medium", point size: 100.0, font version: "19.0d7e1", template writer version: "128"-->
 <style>.monochrome-0 {-sfsymbols-motion-group:1}
.monochrome-1 {-sfsymbols-motion-group:0}

.multicolor-0:systemRedColor {-sfsymbols-motion-group:1}
.multicolor-1:systemRedColor {-sfsymbols-motion-group:0}

.hierarchical-0:secondary {-sfsymbols-motion-group:1}
.hierarchical-1:primary {-sfsymbols-motion-group:0}

.SFSymbolsPreviewWireframe {fill:none;opacity:1.0;stroke:black;stroke-width:0.5}
</style>
 <g id="Notes">
  <rect height="2200" id="artboard" style="fill:white;opacity:1" width="3300" x="0" y="0"/>
  <line style="fill:none;stroke:black;opacity:1;stroke-width:0.5;" x1="263" x2="3036" y1="292" y2="292"/>
  <text style="stroke:none;fill:black;font-family:sans-serif;font-size:13;font-weight:bold;" transform="matrix(1 0 0 1 263 322)">Weight/Scale Variations</text>
  <text style="stroke:none;fill:black;font-family:sans-serif;font-size:13;text-anchor:middle;" transform="matrix(1 0 0 1 559.711 322)">Ultralight</text>
  <text style="stroke:none;fill:black;font-family:sans-serif;font-size:13;text-anchor:middle;" transform="matrix(1 0 0 1 856.422 322)">Thin</text>
  <text style="stroke:none;fill:black;font-family:sans-serif;font-size:13;text-anchor:middle;" transform="matrix(1 0 0 1 1153.13 322)">Light</text>
  <text style="stroke:none;fill:black;font-family:sans-serif;font-size:13;text-anchor:middle;" transform="matrix(1 0 0 1 1449.84 322)">Regular</text>
  <text style="stroke:none;fill:black;font-family:sans-serif;font-size:13;text-anchor:middle;" transform="matrix(1 0 0 1 1746.56 322)">Medium</text>
  <text style="stroke:none;fill:black;font-family:sans-serif;font-size:13;text-anchor:middle;" transform="matrix(1 0 0 1 2043.27 322)">Semibold</text>
  <text style="stroke:none;fill:black;font-family:sans-serif;font-size:13;text-anchor:middle;" transform="matrix(1 0 0 1 2339.98 322)">Bold</text>
  <text style="stroke:none;fill:black;font-family:sans-serif;font-size:13;text-anchor:middle;" transform="matrix(1 0 0 1 2636.69 322)">Heavy</text>
  <text style="stroke:none;fill:black;font-family:sans-serif;font-size:13;text-anchor:middle;" transform="matrix(1 0 0 1 2933.4 322)">Black</text>
  <line style="fill:none;stroke:black;opacity:1;stroke-width:0.5;" x1="263" x2="3036" y1="1903" y2="1903"/>
  <g transform="matrix(0.2 0 0 0.2 263 1933)">
   <path d="m46.2402 4.15039c21.5332 0 39.4531-17.8711 39.4531-39.4043s-17.9688-39.4043-39.502-39.4043c-21.4844 0-39.3555 17.8711-39.3555 39.4043s17.9199 39.4043 39.4043 39.4043Zm0-7.42188c-17.7246 0-31.8848-14.209-31.8848-31.9824s14.1113-31.9824 31.8359-31.9824c17.7734 0 32.0312 14.209 32.0312 31.9824s-14.209 31.9824-31.9824 31.9824Zm-17.9688-31.9824c0 2.14844 1.51367 3.61328 3.75977 3.61328h10.498v10.5957c0 2.19727 1.46484 3.71094 3.61328 3.71094 2.24609 0 3.71094-1.51367 3.71094-3.71094v-10.5957h10.5957c2.19727 0 3.71094-1.46484 3.71094-3.61328 0-2.19727-1.51367-3.71094-3.71094-3.71094h-10.5957v-10.5469c0-2.24609-1.46484-3.75977-3.71094-3.75977-2.14844 0-3.61328 1.51367-3.61328 3.75977v10.5469h-10.498c-2.24609 0-3.75977 1.51367-3.75977 3.71094Z"/>
  </g>
  <g transform="matrix(0.2 0 0 0.2 281.506 1933)">
   <path d="m58.5449 14.5508c27.2461 0 49.8047-22.6074 49.8047-49.8047 0-27.2461-22.6074-49.8047-49.8535-49.8047-27.1973 0-49.7559 22.5586-49.7559 49.8047 0 27.1973 22.6074 49.8047 49.8047 49.8047Zm0-8.30078c-23.0469 0-41.4551-18.457-41.4551-41.5039s18.3594-41.5039 41.4062-41.5039 41.5527 18.457 41.5527 41.5039-18.457 41.5039-41.5039 41.5039Zm-22.6562-41.5039c0 2.39258 1.66016 4.00391 4.15039 4.00391h14.3555v14.4043c0 2.44141 1.66016 4.15039 4.05273 4.15039 2.44141 0 4.15039-1.66016 4.15039-4.15039v-14.4043h14.4043c2.44141 0 4.15039-1.61133 4.15039-4.00391 0-2.44141-1.70898-4.15039-4.15039-4.15039h-14.4043v-14.3555c0-2.49023-1.70898-4.19922-4.15039-4.19922-2.39258 0-4.05273 1.70898-4.05273 4.19922v14.3555h-14.3555c-2.49023 0-4.15039 1.70898-4.15039 4.15039Z"/>
  </g>
  <g transform="matrix(0.2 0 0 0.2 304.924 1933)">
   <path d="m74.8535 28.3203c34.8145 0 63.623-28.8086 63.623-63.5742 0-34.8145-28.8574-63.623-63.6719-63.623-34.7656 0-63.5254 28.8086-63.5254 63.623 0 34.7656 28.8086 63.5742 63.5742 63.5742Zm0-9.08203c-30.1758 0-54.4434-24.3164-54.4434-54.4922 0-30.2246 24.2188-54.4922 54.3945-54.4922 30.2246 0 54.541 24.2676 54.541 54.4922 0 30.1758-24.2676 54.4922-54.4922 54.4922Zm-28.8574-54.4922c0 2.58789 1.85547 4.39453 4.58984 4.39453h19.7266v19.7754c0 2.68555 1.85547 4.58984 4.44336 4.58984 2.68555 0 4.54102-1.85547 4.54102-4.58984v-19.7754h19.7754c2.68555 0 4.58984-1.80664 4.58984-4.39453 0-2.73438-1.85547-4.58984-4.58984-4.58984h-19.7754v-19.7266c0-2.73438-1.85547-4.63867-4.54102-4.63867-2.58789 0-4.44336 1.9043-4.44336 4.63867v19.7266h-19.7266c-2.73438 0-4.58984 1.85547-4.58984 4.58984Z"/>
  </g>
  <text style="stroke:none;fill:black;font-family:sans-serif;font-size:13;font-weight:bold;" transform="matrix(1 0 0 1 263 1953)">Design Variations</text>
  <text style="stroke:none;fill:black;font-family:sans-serif;font-size:13;" transform="matrix(1 0 0 1 263 1971)">Symbols are supported in up to nine weights and three scales.</text>
  <text style="stroke:none;fill:black;font-family:sans-serif;font-size:13;" transform="matrix(1 0 0 1 263 1989)">For optimal layout with text and other symbols, vertically align</text>
  <text style="stroke:none;fill:black;font-family:sans-serif;font-size:13;" transform="matrix(1 0 0 1 263 2007)">symbols with the adjacent text.</text>
  <line style="fill:none;stroke:#00AEEF;stroke-width:0.5;opacity:1.0;" x1="776" x2="776" y1="1919" y2="1933"/>
  <g transform="matrix(0.2 0 0 0.2 776 1933)">
   <path d="m16.5527 0.78125c2.58789 0 3.85742-0.976562 4.78516-3.71094l6.29883-17.2363h28.8086l6.29883 17.2363c0.927734 2.73438 2.19727 3.71094 4.73633 3.71094 2.58789 0 4.24805-1.5625 4.24805-4.00391 0-0.830078-0.146484-1.61133-0.537109-2.63672l-22.9004-60.9863c-1.12305-2.97852-3.125-4.49219-6.25-4.49219-3.02734 0-5.07812 1.46484-6.15234 4.44336l-22.9004 61.084c-0.390625 1.02539-0.537109 1.80664-0.537109 2.63672 0 2.44141 1.5625 3.95508 4.10156 3.95508Zm13.4766-28.3691 11.8652-32.8613h0.244141l11.8652 32.8613Z"/>
  </g>
  <line style="fill:none;stroke:#00AEEF;stroke-width:0.5;opacity:1.0;" x1="792.836" x2="792.836" y1="1919" y2="1933"/>
  <text style="stroke:none;fill:black;font-family:sans-serif;font-size:13;font-weight:bold;" transform="matrix(1 0 0 1 776 1953)">Margins</text>
  <text style="stroke:none;fill:black;font-family:sans-serif;font-size:13;" transform="matrix(1 0 0 1 776 1971)">Leading and trailing margins on the left and right side of each symbol</text>
  <text style="stroke:none;fill:black;font-family:sans-serif;font-size:13;" transform="matrix(1 0 0 1 776 1989)">can be adjusted by modifying the x-location of the margin guidelines.</text>
  <text style="stroke:none;fill:black;font-family:sans-serif;font-size:13;" transform="matrix(1 0 0 1 776 2007)">Modifications are automatically applied proportionally to all</text>
  <text style="stroke:none;fill:black;font-family:sans-serif;font-size:13;" transform="matrix(1 0 0 1 776 2025)">scales and weights.</text>
  <g transform="matrix(0.2 0 0 0.2 1289 1933)">
   <path d="m14.209 9.32617 8.49609 8.54492c4.29688 4.3457 9.22852 4.05273 13.8672-1.07422l53.4668-58.9355-4.83398-4.88281-53.0762 58.3984c-1.75781 2.00195-3.41797 2.49023-5.76172 0.146484l-5.85938-5.81055c-2.34375-2.29492-1.80664-4.00391 0.195312-5.81055l57.373-54.0039-4.88281-4.83398-57.959 54.4434c-4.93164 4.58984-5.32227 9.47266-1.02539 13.8184Zm32.0801-90.9668c-2.09961 2.05078-2.24609 4.93164-1.07422 6.88477 1.17188 1.80664 3.4668 2.97852 6.68945 2.14844 7.32422-1.70898 14.9414-2.00195 22.0703 2.68555l-2.92969 7.27539c-1.70898 4.15039-0.830078 7.08008 1.85547 9.81445l11.4746 11.5723c2.44141 2.44141 4.49219 2.53906 7.32422 2.05078l5.32227-0.976562 3.32031 3.36914-0.195312 2.7832c-0.195312 2.49023 0.439453 4.39453 2.88086 6.78711l3.80859 3.71094c2.39258 2.39258 5.46875 2.53906 7.8125 0.195312l14.5508-14.5996c2.34375-2.34375 2.24609-5.32227-0.146484-7.71484l-3.85742-3.80859c-2.39258-2.39258-4.24805-3.17383-6.64062-2.97852l-2.88086 0.244141-3.22266-3.17383 1.2207-5.61523c0.634766-2.83203-0.146484-5.0293-3.07617-7.95898l-10.9863-10.9375c-16.6992-16.6016-38.8672-16.2109-53.3203-1.75781Zm7.4707 1.85547c12.1582-8.88672 28.6133-7.37305 39.7461 3.75977l12.1582 12.0605c1.17188 1.17188 1.36719 2.09961 1.02539 3.80859l-1.61133 7.42188 7.51953 7.42188 4.93164-0.292969c1.26953-0.0488281 1.66016 0.0488281 2.63672 1.02539l2.88086 2.88086-12.207 12.207-2.88086-2.88086c-0.976562-0.976562-1.12305-1.36719-1.07422-2.68555l0.341797-4.88281-7.4707-7.42188-7.61719 1.26953c-1.61133 0.341797-2.34375 0.195312-3.56445-0.976562l-10.0098-10.0098c-1.26953-1.17188-1.41602-2.00195-0.634766-3.85742l4.39453-10.4492c-7.8125-7.27539-17.9688-10.4004-28.125-7.42188-0.78125 0.195312-1.07422-0.439453-0.439453-0.976562Z"/>
  </g>
  <text style="stroke:none;fill:black;font-family:sans-serif;font-size:13;font-weight:bold;" transform="matrix(1 0 0 1 1289 1953)">Exporting</text>
  <text style="stroke:none;fill:black;font-family:sans-serif;font-size:13;" transform="matrix(1 0 0 1 1289 1971)">Symbols should be outlined when exporting to ensure the</text>
  <text style="stroke:none;fill:black;font-family:sans-serif;font-size:13;" transform="matrix(1 0 0 1 1289 1989)">design is preserved when submitting to Xcode.</text>
  <text id="template-version" style="stroke:none;fill:black;font-family:sans-serif;font-size:13;text-anchor:end;" transform="matrix(1 0 0 1 3036 1933)">Template v.5.0</text>
  <text style="stroke:none;fill:black;font-family:sans-serif;font-size:13;text-anchor:end;" transform="matrix(1 0 0 1 3036 1951)">Requires Xcode 15 or greater</text>
  <text id="descriptive-name" style="stroke:none;fill:black;font-family:sans-serif;font-size:13;text-anchor:end;" transform="matrix(1 0 0 1 3036 1969)">Generated from minus.plus.batteryblock</text>
  <text style="stroke:none;fill:black;font-family:sans-serif;font-size:13;text-anchor:end;" transform="matrix(1 0 0 1 3036 1987)">Typeset at 100.0 points</text>
  <text style="stroke:none;fill:black;font-family:sans-serif;font-size:13;" transform="matrix(1 0 0 1 263 726)">Small</text>
  <text style="stroke:none;fill:black;font-family:sans-serif;font-size:13;" transform="matrix(1 0 0 1 263 1156)">Medium</text>
  <text style="stroke:none;fill:black;font-family:sans-serif;font-size:13;" transform="matrix(1 0 0 1 263 1586)">Large</text>
 </g>
 <g id="Guides">
  <g id="H-reference" style="fill:#27AAE1;stroke:none;" transform="matrix(1 0 0 1 339 696)">
   <path d="M0.993654 0L3.63775 0L29.3281-67.1323L30.0303-67.1323L30.0303-70.459L28.1226-70.459ZM11.6885-24.4799L46.9815-24.4799L46.2315-26.7285L12.4385-26.7285ZM55.1196 0L57.7637 0L30.6382-70.459L29.4326-70.459L29.4326-67.1323Z"/>
  </g>
  <line id="Baseline-S" style="fill:none;stroke:#27AAE1;opacity:1;stroke-width:0.5;" x1="263" x2="3036" y1="696" y2="696"/>
  <line id="Capline-S" style="fill:none;stroke:#27AAE1;opacity:1;stroke-width:0.5;" x1="263" x2="3036" y1="625.541" y2="625.541"/>
  <g id="H-reference" style="fill:#27AAE1;stroke:none;" transform="matrix(1 0 0 1 339 1126)">
   <path d="M0.993654 0L3.63775 0L29.3281-67.1323L30.0303-67.1323L30.0303-70.459L28.1226-70.459ZM11.6885-24.4799L46.9815-24.4799L46.2315-26.7285L12.4385-26.7285ZM55.1196 0L57.7637 0L30.6382-70.459L29.4326-70.459L29.4326-67.1323Z"/>
  </g>
  <line id="Baseline-M" style="fill:none;stroke:#27AAE1;opacity:1;stroke-width:0.5;" x1="263" x2="3036" y1="1126" y2="1126"/>
  <line id="Capline-M" style="fill:none;stroke:#27AAE1;opacity:1;stroke-width:0.5;" x1="263" x2="3036" y1="1055.54" y2="1055.54"/>
  <g id="H-reference" style="fill:#27AAE1;stroke:none;" transform="matrix(1 0 0 1 339 1556)">
   <path d="M0.993654 0L3.63775 0L29.3281-67.1323L30.0303-67.1323L30.0303-70.459L28.1226-70.459ZM11.6885-24.4799L46.9815-24.4799L46.2315-26.7285L12.4385-26.7285ZM55.1196 0L57.7637 0L30.6382-70.459L29.4326-70.459L29.4326-67.1323Z"/>
  </g>
  <line id="Baseline-L" style="fill:none;stroke:#27AAE1;opacity:1;stroke-width:0.5;" x1="263" x2="3036" y1="1556" y2="1556"/>
  <line id="Capline-L" style="fill:none;stroke:#27AAE1;opacity:1;stroke-width:0.5;" x1="263" x2="3036" y1="1485.54" y2="1485.54"/>
  <line id="left-margin-Ultralight-S" style="fill:none;stroke:#00AEEF;stroke-width:0.5;opacity:1.0;" x1="505.702" x2="505.702" y1="600.785" y2="720.121"/>
  <line id="right-margin-Ultralight-S" style="fill:none;stroke:#00AEEF;stroke-width:0.5;opacity:1.0;" x1="613.72" x2="613.72" y1="600.785" y2="720.121"/>
  <line id="left-margin-Regular-S" style="fill:none;stroke:#00AEEF;stroke-width:0.5;opacity:1.0;" x1="1394.79" x2="1394.79" y1="600.785" y2="720.121"/>
  <line id="right-margin-Regular-S" style="fill:none;stroke:#00AEEF;stroke-width:0.5;opacity:1.0;" x1="1504.9" x2="1504.9" y1="600.785" y2="720.121"/>
  <line id="left-margin-Black-S" style="fill:none;stroke:#00AEEF;stroke-width:0.5;opacity:1.0;" x1="2877.35" x2="2877.35" y1="600.785" y2="720.121"/>
  <line id="right-margin-Black-S" style="fill:none;stroke:#00AEEF;stroke-width:0.5;opacity:1.0;" x1="2989.45" x2="2989.45" y1="600.785" y2="720.121"/>
 </g>
 <g id="Symbols">
  <g id="Black-S" transform="matrix(1 0 0 1 2877.35 696)">
   <path class="monochrome-0 multicolor-0:systemRedColor hierarchical-0:secondary SFSymbolsPreviewWireframe" d="M25 2.88086L87.1094 2.88086C96.6797 2.88086 102.344-2.7832 102.344-12.3535L102.344-46.9238C102.344-56.4941 96.6797-62.1582 87.1094-62.1582L84.1797-62.1582L84.1797-65.4785C84.1797-70.459 81.2988-73.3887 76.3672-73.3887L68.5547-73.3887C63.623-73.3887 60.7422-70.459 60.7422-65.4785L60.7422-62.1582L51.3672-62.1582L51.3672-65.4785C51.3672-70.459 48.4863-73.3887 43.5547-73.3887L35.7422-73.3887C30.8105-73.3887 27.9297-70.459 27.9297-65.4785L27.9297-62.1582L25-62.1582C15.4297-62.1582 9.76562-56.4941 9.76562-46.9238L9.76562-12.3535C9.76562-2.7832 15.4297 2.88086 25 2.88086ZM23.9258-14.5996L23.9258-44.6777C23.9258-47.1191 25-47.998 27.2461-47.998L84.8633-47.998C87.1094-47.998 88.1836-47.1191 88.1836-44.6777L88.1836-14.5996C88.1836-12.1582 87.1094-11.2793 84.8633-11.2793L27.2461-11.2793C25-11.2793 23.9258-12.1582 23.9258-14.5996Z"/>
   <path class="monochrome-1 multicolor-1:systemRedColor hierarchical-1:primary SFSymbolsPreviewWireframe" d="M33.9844-25.7324L45.3613-25.7324C47.5098-25.7324 49.2676-27.4902 49.2676-29.6387C49.2676-31.7871 47.5098-33.5449 45.3613-33.5449L33.9844-33.5449C31.8359-33.5449 30.0781-31.7871 30.0781-29.6387C30.0781-27.4902 31.8359-25.7324 33.9844-25.7324ZM72.5586-19.0918C74.707-19.0918 76.416-20.8496 76.416-22.998L76.416-25.7324L79.1504-25.7324C81.2988-25.7324 83.0566-27.4902 83.0566-29.6387C83.0566-31.7871 81.2988-33.5449 79.1504-33.5449L76.416-33.5449L76.416-36.3281C76.416-38.4766 74.6582-40.2344 72.5098-40.2344C70.3613-40.2344 68.6035-38.4766 68.6035-36.3281L68.6035-33.5449L65.8203-33.5449C63.6719-33.5449 61.9141-31.7871 61.9141-29.6387C61.9141-27.4902 63.6719-25.7324 65.8203-25.7324L68.6035-25.7324L68.6035-22.998C68.6035-20.8496 70.3613-19.0918 72.5586-19.0918Z"/>
  </g>
  <g id="Regular-S" transform="matrix(1 0 0 1 1394.79 696)">
   <path class="monochrome-0 multicolor-0:systemRedColor hierarchical-0:secondary SFSymbolsPreviewWireframe" d="M22.2168 0.341797L87.8906 0.341797C96.2402 0.341797 100.342-3.75977 100.342-11.9629L100.342-48.7793C100.342-56.9824 96.2402-61.084 87.8906-61.084L82.9102-61.084L82.9102-65.918C82.9102-68.9941 81.1523-70.8496 78.125-70.8496L67.2363-70.8496C64.209-70.8496 62.4023-68.9941 62.4023-65.918L62.4023-61.084L47.7051-61.084L47.7051-65.918C47.7051-68.9941 45.9473-70.8496 42.8711-70.8496L32.0312-70.8496C29.0039-70.8496 27.1973-68.9941 27.1973-65.918L27.1973-61.084L22.2168-61.084C13.916-61.084 9.76562-56.9824 9.76562-48.7793L9.76562-11.9629C9.76562-3.75977 13.916 0.341797 22.2168 0.341797ZM16.7969-12.3047L16.7969-48.4375C16.7969-52.0996 18.7988-54.0039 22.3145-54.0039L87.793-54.0039C91.3086-54.0039 93.3105-52.0996 93.3105-48.4375L93.3105-12.3047C93.3105-8.64258 91.3086-6.73828 87.793-6.73828L22.3145-6.73828C18.7988-6.73828 16.7969-8.64258 16.7969-12.3047Z"/>
   <path class="monochrome-1 multicolor-1:systemRedColor hierarchical-1:primary SFSymbolsPreviewWireframe" d="M29.6387-27.1973L45.166-27.1973C46.9727-27.1973 48.3887-28.5645 48.3887-30.3711C48.3887-32.1777 46.9727-33.5449 45.166-33.5449L29.6387-33.5449C27.832-33.5449 26.416-32.1777 26.416-30.3711C26.416-28.5645 27.832-27.1973 29.6387-27.1973ZM72.6074-18.457C74.4141-18.457 75.8301-19.873 75.8301-21.6797L75.8301-27.1973L81.3477-27.1973C83.1055-27.1973 84.5215-28.5645 84.5215-30.3711C84.5215-32.1777 83.1055-33.5449 81.3477-33.5449L75.8301-33.5449L75.8301-39.0625C75.8301-40.8691 74.4141-42.2852 72.6074-42.2852C70.8496-42.2852 69.4336-40.8691 69.4336-39.0625L69.4336-33.5449L63.916-33.5449C62.1582-33.5449 60.7422-32.1777 60.7422-30.3711C60.7422-28.5645 62.1582-27.1973 63.916-27.1973L69.4336-27.1973L69.4336-21.6797C69.4336-19.873 70.8496-18.457 72.6074-18.457Z"/>
  </g>
  <g id="Ultralight-S" transform="matrix(1 0 0 1 505.702 696)">
   <path class="monochrome-0 multicolor-0:systemRedColor hierarchical-0:secondary SFSymbolsPreviewWireframe" d="M19.7647-1.65623L88.2539-1.65623C94.7871-1.65623 98.2529-5.21288 98.2529-11.645L98.2529-49.0972C98.2529-55.5293 94.7871-59.086 88.2539-59.086L81.5025-59.086L81.5025-65.2822C81.5025-67.4956 80.2896-68.8516 77.8071-68.8516L64.7388-68.8516C62.2564-68.8516 60.9946-67.4956 60.9946-65.2822L60.9946-59.086L47.0239-59.086L47.0239-65.2822C47.0239-67.4956 45.7656-68.8516 43.2798-68.8516L30.2149-68.8516C27.7324-68.8516 26.5161-67.4956 26.5161-65.2822L26.5161-59.086L19.7647-59.086C13.2349-59.086 9.76562-55.6201 9.76562-49.0972L9.76562-11.645C9.76562-5.12206 13.2349-1.65623 19.7647-1.65623ZM11.9834-11.7598L11.9834-48.9824C11.9834-54.1885 14.6665-56.8647 19.8623-56.8647L88.1562-56.8647C93.1704-56.8647 96.0351-54.1885 96.0351-48.9824L96.0351-11.7598C96.0351-6.55373 93.1704-3.87746 88.1562-3.87746L19.8623-3.87746C14.6665-3.87746 11.9834-6.55373 11.9834-11.7598Z"/>
   <path class="monochrome-1 multicolor-1:systemRedColor hierarchical-1:primary SFSymbolsPreviewWireframe" d="M27.8677-29.2861L45.5747-29.2861C46.2007-29.2861 46.6631-29.7905 46.6631-30.3711C46.6631-30.9517 46.2007-31.4561 45.5747-31.4561L27.8677-31.4561C27.2871-31.4561 26.7793-30.9517 26.7793-30.3711C26.7793-29.7905 27.2871-29.2861 27.8677-29.2861ZM71.2905-20.4097C71.9165-20.4097 72.3789-20.8721 72.3789-21.498L72.3789-29.2861L80.167-29.2861C80.7896-29.2861 81.252-29.7905 81.252-30.3711C81.252-30.9517 80.7896-31.4561 80.167-31.4561L72.3789-31.4561L72.3789-39.2895C72.3789-39.9155 71.9165-40.3779 71.2905-40.3779C70.7134-40.3779 70.2056-39.9155 70.2056-39.2895L70.2056-31.4561L62.3721-31.4561C61.7495-31.4561 61.2871-30.9517 61.2871-30.3711C61.2871-29.7905 61.7949-29.2861 62.3721-29.2861L70.2056-29.2861L70.2056-21.498C70.2056-20.8267 70.7134-20.4097 71.2905-20.4097Z"/>
  </g>
 </g>
</svg>
